<svg width="71" height="71" viewBox="0 0 71 71" fill="none" xmlns="http://www.w3.org/2000/svg">
<path d="M60.7497 1.83398H10.2497C5.60128 1.83398 1.83301 5.60225 1.83301 10.2507V60.7506C1.83301 65.399 5.60128 69.1673 10.2497 69.1673H60.7497C65.3981 69.1673 69.1663 65.399 69.1663 60.7506V10.2507C69.1663 5.60225 65.3981 1.83398 60.7497 1.83398Z" stroke="#c0bec7" stroke-width="3" stroke-linecap="round"/>
<path d="M20.7708 24.9792C23.095 24.9792 24.9792 23.095 24.9792 20.7708C24.9792 18.4466 23.095 16.5625 20.7708 16.5625C18.4466 16.5625 16.5625 18.4466 16.5625 20.7708C16.5625 23.095 18.4466 24.9792 20.7708 24.9792Z" stroke="#c0bec7" stroke-width="3" stroke-linecap="round"/>
<path d="M6.04199 64.9572L28.1294 39.1883C29.798 37.2419 32.804 37.2268 34.492 39.1559L60.7503 69.1655" stroke="#c0bec7" stroke-width="3" stroke-linecap="round"/>
<path d="M41.8125 46.0218L51.4799 34.7431C53.0753 32.8817 55.9176 32.7727 57.651 34.5061L69.1667 46.0218" stroke="#c0bec7" stroke-width="3" stroke-linecap="round"/>
</svg>
